<?xml version="1.0" encoding="UTF-8"?>
<!-- Generator: visioncortex VTracer 0.6.3 -->
<svg version="1.1" xmlns="http://www.w3.org/2000/svg" width="1280" height="1280">
<path d="M0 0 C2.97 0 5.94 0 9 0 C9.33 0.66 9.66 1.32 10 2 C11.89 2.74 13.78 3.47 15.69 4.15 C18.01 5 20.25 5.97 22.5 7 C29.52 10.49 29.52 10.49 37 12 C37.46 12.47 37.93 12.93 38.41 13.41 C40.51 15.51 42.87 16.15 45.62 17.12 C48.32 18.12 50.89 19.29 53.5 20.5 C57.28 22.24 61.06 23.84 64.98 25.26 C71.32 27.58 77.54 30.19 83.7 32.97 C87.87 34.84 92.08 36.61 96.29 38.39 C102.01 40.83 107.69 43.3 113.31 45.94 C119.13 48.65 125.03 51.11 130.97 53.53 C135.34 55.31 139.67 57.16 143.96 59.11 C146.29 60.13 148.64 61.07 151 62 C155.73 63.87 160.37 65.91 165 68 C166.69 68.75 168.37 69.5 170.06 70.25 C171.38 70.83 172.69 71.42 174 72 C174.33 71.34 174.66 70.68 175 70 C175.37 70.94 175.37 70.94 175.75 71.91 C177.3 74.5 178.19 74.73 181.06 75.5 C185.18 76.71 188.97 78.24 192.87 80.03 C194.81 80.91 196.77 81.75 198.75 82.56 C202 84 202 84 204.2 85.4 C207.68 87.39 211.24 88.67 215 90 C219.66 91.65 223.79 93.36 228 96 C229.91 96.72 231.82 97.44 233.73 98.13 C236.17 99.07 238.51 100.14 240.88 101.25 C246.67 103.93 252.58 106.22 258.54 108.5 C270.59 113.11 270.59 113.11 274.38 115.5 C276.66 116.81 278.51 117.54 281 118.31 C285.99 119.9 290.61 122.09 295.34 124.33 C299.34 126.19 303.41 127.84 307.5 129.5 C313.85 132.08 320.07 134.82 326.27 137.73 C329.49 139.23 332.73 140.62 336 142 C337.44 142.64 338.88 143.29 340.31 143.94 C344.38 145.75 348.49 147.42 352.62 149.05 C355.78 150.31 358.89 151.65 362 153 C362.33 152.34 362.66 151.68 363 151 C363.24 151.62 363.47 152.24 363.72 152.88 C365.34 155.57 366.56 155.96 369.5 157 C370.4 157.33 371.29 157.66 372.21 158 C373.13 158.33 374.05 158.66 375 159 C376.69 159.66 378.38 160.33 380.06 161 C380.89 161.33 381.72 161.66 382.57 162 C389.23 164.74 395.76 167.8 402.31 170.78 C407.79 173.27 413.27 175.73 418.88 177.94 C424.34 180.1 429.66 182.54 435 185 C440.46 187.48 445.96 189.8 451.53 192 C454.63 193.26 457.68 194.63 460.73 196 C463.09 197.04 465.47 197.99 467.88 198.94 C473.34 201.1 478.66 203.54 484 206 C488.54 208.07 493.1 210.06 497.75 211.88 C502.94 213.92 507.98 216.26 513.03 218.62 C517.07 220.5 521.13 222.27 525.29 223.89 C529.67 225.6 533.89 227.4 538.06 229.56 C542.58 231.88 547.14 233.56 552 235 C552 235.66 552 236.32 552 237 C552.82 237.15 552.82 237.15 553.65 237.3 C559.54 238.47 564.59 240.44 570 243 C571.25 243.53 572.5 244.05 573.75 244.56 C577 246 577 246 579.38 247.5 C582.37 249.21 585.33 250.14 588.6 251.18 C591.79 252.27 594.81 253.63 597.87 255.03 C599.81 255.91 601.77 256.75 603.75 257.56 C607 259 607 259 609.38 260.5 C611.68 261.82 613.55 262.54 616.06 263.31 C621.05 264.87 625.51 267.22 630.11 269.7 C636.45 272.55 641.58 272.18 648 270 C651.11 268.55 654.14 266.99 657.18 265.4 C660.44 263.78 663.47 262.8 667 262 C667 261.34 667 260.68 667 260 C667.59 259.89 668.18 259.78 668.79 259.67 C673.48 258.73 676.97 257.65 681 255 C686.21 252.59 691.53 250.75 697 249 C697 248.34 697 247.68 697 247 C701.46 246.01 701.46 246.01 706 245 C706 244.34 706 243.68 706 243 C706.59 242.89 707.18 242.78 707.79 242.67 C712.48 241.73 715.97 240.65 720 238 C721.24 237.46 722.49 236.94 723.75 236.44 C727.08 235.38 727.08 235.38 728 233 C730.04 232.81 732.08 232.61 734.12 232.42 C736.23 232.17 736.23 232.17 737.5 229.94 C737.66 229.3 737.83 228.66 738 228 C738 228.66 738 229.32 738 230 C744.13 228.09 750.36 226.11 756 223 C756.33 222.34 756.66 221.68 757 221 C759.07 220.37 759.07 220.37 761.56 219.88 C762.39 219.71 763.22 219.54 764.07 219.37 C764.7 219.25 765.34 219.12 766 219 C765.01 218.34 764.02 217.68 763 217 C763.81 216.89 764.62 216.78 765.45 216.67 C766.52 216.51 767.59 216.35 768.69 216.19 C769.74 216.04 770.8 215.89 771.89 215.73 C775.13 214.97 777.23 213.79 780 212 C781.07 211.65 782.14 211.3 783.25 210.94 C786.14 210.31 786.14 210.31 787 208 C789.07 207.37 789.07 207.37 791.56 206.88 C792.39 206.71 793.22 206.54 794.07 206.37 C794.7 206.25 795.34 206.12 796 206 C796 205.34 796 204.68 796 204 C797.24 203.79 798.48 203.59 799.75 203.38 C805 202.23 809.39 199.94 814.12 197.45 C816.59 196.21 818.96 195.21 821.56 194.31 C824.91 193.31 824.91 193.31 826.53 191.44 C828.5 189.51 830.17 189.77 832.81 189.49 C836.72 188.61 840.1 186.52 843.63 184.68 C847.16 182.92 850.76 181.43 854.44 180 C860.41 177.68 866.21 175.1 872 172.38 C875.51 170.77 879.06 169.34 882.64 167.93 C885.1 166.96 887.56 165.97 890 164.94 C890.72 164.64 891.44 164.34 892.19 164.03 C894.33 162.99 894.33 162.99 896 160 C896 160.66 896 161.32 896 162 C896.55 161.76 897.09 161.52 897.65 161.27 C899.25 160.56 900.84 159.85 902.43 159.14 C904.05 158.42 905.67 157.69 907.29 156.95 C912.43 154.6 917.61 152.68 923 151 C922.67 150.34 922.34 149.68 922 149 C922.66 148.89 923.33 148.78 924.01 148.67 C928.99 147.77 932.76 146.87 937 144 C942.21 141.59 947.53 139.75 953 138 C952.67 137.34 952.34 136.68 952 136 C952.7 135.88 953.4 135.76 954.12 135.63 C955.03 135.47 955.94 135.3 956.88 135.12 C957.78 134.96 958.68 134.8 959.62 134.63 C962.17 134.17 962.17 134.17 964 132 C965.81 131.32 965.81 131.32 968 130.69 C973.3 129.02 978.1 126.59 983 124 C983 123.67 983 123.34 983 123 C983.94 122.82 983.94 122.82 984.9 122.63 C985.72 122.47 986.53 122.3 987.38 122.12 C988.19 121.96 989 121.8 989.84 121.63 C992.19 121.13 992.19 121.13 994 119 C996.66 117.96 999.32 116.97 1002 116 C1003.82 115.32 1005.63 114.64 1007.44 113.94 C1008.7 113.46 1008.7 113.46 1010 112.96 C1012.17 112.17 1012.17 112.17 1013 110 C1015 109.44 1015 109.44 1017.44 109 C1021.14 108.38 1021.14 108.38 1024 106 C1025.85 105.29 1025.85 105.29 1028.06 104.62 C1032.07 103.35 1035.84 101.8 1039.66 100.04 C1043.02 98.55 1046.47 97.29 1049.93 96.03 C1052.32 95.05 1052.32 95.05 1054 92 C1054.33 92.33 1054.66 92.66 1055 93 C1057.34 92.71 1059.67 92.38 1062 92 C1062 91.34 1062 90.68 1062 90 C1063.46 89.42 1064.92 88.83 1066.38 88.25 C1067.28 87.89 1068.18 87.52 1069.12 87.14 C1071.01 86.39 1072.91 85.66 1074.82 84.95 C1076.15 84.45 1076.15 84.45 1077.5 83.94 C1078.31 83.64 1079.13 83.34 1079.97 83.03 C1082.33 82.04 1082.33 82.04 1084 79 C1084.33 79.33 1084.66 79.66 1085 80 C1085.95 79.59 1086.9 79.17 1087.88 78.75 C1090.86 77.47 1093.86 76.26 1096.88 75.06 C1106.67 72 1106.67 72 1114 66 C1114 66.66 1114 67.32 1114 68 C1114.95 67.59 1115.9 67.17 1116.88 66.75 C1119.86 65.47 1122.86 64.26 1125.88 63.06 C1130.64 61.17 1135.33 59.12 1140 57 C1139.67 56.34 1139.34 55.68 1139 55 C1142.63 54.34 1146.26 53.68 1150 53 C1149.67 52.34 1149.34 51.68 1149 51 C1149.76 50.83 1150.52 50.66 1151.31 50.48 C1157.78 48.97 1164.22 47.39 1170 44 C1170.33 43.34 1170.66 42.68 1171 42 C1173.28 41.44 1175.55 41.11 1177.87 40.76 C1180.18 40.18 1180.18 40.18 1181.29 37.93 C1181.64 36.97 1181.64 36.97 1182 36 C1182 36.66 1182 37.32 1182 38 C1184.67 37.01 1187.34 36.01 1190 35 C1190.9 34.66 1191.8 34.33 1192.72 33.98 C1193.62 33.64 1194.51 33.29 1195.44 32.94 C1196.28 32.62 1197.13 32.3 1198 31.96 C1200.17 31.17 1200.17 31.17 1201 29 C1203.07 28.37 1203.07 28.37 1205.56 27.88 C1206.39 27.71 1207.22 27.54 1208.07 27.37 C1208.7 27.25 1209.34 27.12 1210 27 C1209.34 26.34 1208.68 25.68 1208 25 C1208.69 24.9 1209.38 24.8 1210.09 24.7 C1217.66 23.5 1224.01 21.43 1230.56 17.44 C1233.25 15.85 1235.91 14.86 1238.84 13.81 C1241.83 12.69 1244.72 11.36 1247.62 10.04 C1250.97 8.58 1254.4 7.35 1257.84 6.12 C1260.36 4.81 1261.47 3.37 1263 1 C1263.33 1.66 1263.66 2.32 1264 3 C1265.98 2.65 1265.98 2.65 1268 2 C1268.33 1.34 1268.66 0.68 1269 0 C1272.63 0 1276.26 0 1280 0 C1280 3.3 1280 6.6 1280 10 C1279.34 10.33 1278.68 10.66 1278 11 C1277.19 12.57 1276.45 14.19 1275.75 15.81 C1273.03 21.98 1270.04 27.99 1267 34 C1266.12 35.75 1265.25 37.5 1264.38 39.25 C1247.23 73.54 1230.08 107.83 1212.94 142.12 C1212.62 142.77 1212.3 143.41 1211.96 144.07 C1211.32 145.37 1210.66 146.66 1210 147.96 C1207.5 152.9 1205.21 157.92 1203 163 C1202.34 163 1201.68 163 1201 163 C1200.74 163.84 1200.74 163.84 1200.48 164.69 C1198.77 170.09 1196.64 175 1194 180 C1191.07 185.76 1188.31 191.58 1185.64 197.46 C1183.64 201.79 1181.4 205.88 1179 210 C1176.76 214.24 1174.69 218.5 1173 223 C1172.34 223 1171.68 223 1171 223 C1170.9 223.91 1170.79 224.81 1170.69 225.75 C1169.96 229.17 1169.11 230.32 1167 233 C1166.25 234.69 1165.51 236.38 1164.81 238.09 C1163.97 240.06 1163.04 241.96 1162.06 243.88 C1159.88 248.18 1157.93 252.58 1156 257 C1155.34 257 1154.68 257 1154 257 C1153.88 258.27 1153.88 258.27 1153.75 259.56 C1153.02 262.9 1151.87 265.26 1150.11 268.15 C1148.2 271.33 1146.63 274.68 1145 278 C1144.4 279.21 1143.79 280.42 1143.19 281.62 C1142.7 282.6 1142.7 282.6 1142.2 283.6 C1128.78 310.44 1115.36 337.28 1101.94 364.12 C1101.62 364.77 1101.3 365.41 1100.96 366.07 C1100.32 367.37 1099.66 368.66 1099 369.96 C1096.5 374.9 1094.21 379.92 1092 385 C1091.34 385 1090.68 385 1090 385 C1089.88 386.27 1089.88 386.27 1089.75 387.56 C1089.02 390.9 1087.87 393.26 1086.11 396.15 C1084.59 398.68 1083.31 401.31 1082.01 403.95 C1080.98 406.04 1079.93 408.11 1078.88 410.19 C1077.43 413.07 1076.13 415.97 1075 419 C1074.34 419 1073.68 419 1073 419 C1072.92 419.66 1072.84 420.32 1072.75 421 C1071.75 425.01 1069.91 428.36 1068 432 C1067.33 433.33 1066.66 434.67 1066 436 C1064.98 438.04 1063.96 440.07 1062.93 442.11 C1061.12 445.69 1059.41 449.24 1058 453 C1057.34 453 1056.68 453 1056 453 C1055.83 453.56 1055.66 454.11 1055.48 454.69 C1053.77 460.09 1051.64 464.99 1049 470 C1048.35 471.29 1047.71 472.58 1047.06 473.88 C1030.05 507.89 1013.04 541.91 996.04 575.93 C995.71 576.57 995.39 577.22 995.06 577.88 C994.37 579.26 993.68 580.63 993 582.01 C991.57 584.86 990.14 587.72 988.72 590.59 C986.82 594.43 984.88 598.24 982.86 602.02 C977.66 611.78 972.72 621.62 967.99 631.61 C964.11 639.8 960.09 647.92 956 656 C955.67 656.66 955.34 657.32 955 658 C954.34 658 953.68 658 953 658 C952.91 658.82 952.83 659.64 952.74 660.49 C951.83 664.79 950.13 668.24 948.12 672.12 C947.77 672.83 947.42 673.53 947.06 674.25 C945.27 677.76 943.39 680.86 941 684 C940.03 686.11 940.03 686.11 939.31 688.25 C938.88 689.49 938.45 690.73 938 692 C937.34 692 936.68 692 936 692 C935.89 692.88 935.79 693.76 935.68 694.66 C934.98 698.09 933.93 700.36 932.19 703.38 C931.65 704.33 931.11 705.28 930.55 706.27 C930.04 707.17 929.53 708.07 929 709 C926.07 714.55 923.5 720.25 921 726 C920.34 726 919.68 726 919 726 C918.89 726.88 918.79 727.76 918.68 728.66 C917.98 732.09 916.93 734.36 915.19 737.38 C914.65 738.33 914.11 739.28 913.55 740.27 C913.04 741.17 912.53 742.07 912 743 C909.07 748.55 906.5 754.25 904 760 C903.34 760 902.68 760 902 760 C901.89 760.88 901.79 761.76 901.68 762.66 C900.98 766.09 899.93 768.36 898.19 771.38 C897.65 772.33 897.11 773.28 896.55 774.27 C896.04 775.17 895.53 776.07 895 777 C892.07 782.55 889.5 788.25 887 794 C886.34 794 885.68 794 885 794 C884.9 794.91 884.79 795.82 884.69 796.75 C883.96 800.17 883.11 801.32 881 804 C880.25 805.69 879.51 807.38 878.81 809.09 C877.97 811.06 877.04 812.96 876.06 814.88 C873.88 819.18 871.93 823.58 870 828 C869.34 828 868.68 828 868 828 C867.9 828.91 867.79 829.82 867.69 830.75 C866.96 834.17 866.11 835.32 864 838 C863.25 839.69 862.51 841.38 861.81 843.08 C860.38 846.47 858.67 849.72 857 853 C856.35 854.29 855.71 855.58 855.06 856.88 C844.04 878.92 833.02 900.96 822 923 C821.67 923.66 821.34 924.32 821 925 C820.33 926.33 819.67 927.67 819 929 C817.33 932.34 815.66 935.69 814 939.04 C810.44 946.21 806.79 953.31 803 960.36 C799.53 966.82 796.27 973.38 793.02 979.95 C791.27 983.47 789.51 986.98 787.75 990.5 C787.12 991.76 786.49 993.02 785.86 994.28 C785.56 994.89 785.26 995.49 784.94 996.11 C784.28 997.45 783.61 998.78 782.94 1000.12 C782.59 1000.82 782.24 1001.52 781.88 1002.25 C781.56 1002.88 781.25 1003.51 780.92 1004.17 C780.02 1005.97 779.1 1007.77 778.19 1009.56 C776.84 1012.25 775.55 1014.96 774.3 1017.7 C773.84 1018.7 773.84 1018.7 773.37 1019.71 C772.76 1021.05 772.15 1022.38 771.55 1023.72 C769.99 1027.13 768.31 1030.06 766 1033 C765.25 1034.69 764.51 1036.38 763.81 1038.09 C762.38 1041.48 760.66 1044.72 759 1048 C758.17 1049.67 757.33 1051.33 756.5 1053 C749.71 1066.57 742.93 1080.15 736.14 1093.72 C735.83 1094.33 735.53 1094.95 735.21 1095.58 C734.54 1096.91 733.88 1098.24 733.21 1099.58 C731.46 1103.07 729.72 1106.57 727.98 1110.07 C724.07 1117.95 720.04 1125.76 715.86 1133.5 C711.5 1141.7 707.57 1150.09 703.62 1158.49 C701.59 1162.79 699.53 1166.96 697 1171 C696.34 1172.26 695.69 1173.53 695.06 1174.81 C693.68 1177.61 692.29 1180.4 690.88 1183.19 C689.43 1186.07 688.13 1188.97 687 1192 C686.34 1192 685.68 1192 685 1192 C684.83 1192.56 684.66 1193.11 684.48 1193.69 C683.02 1198.31 681.34 1202.63 679.09 1206.92 C678.08 1208.85 677.1 1210.78 676.13 1212.72 C675.61 1213.77 675.61 1213.77 675.08 1214.83 C674.72 1215.55 674.37 1216.26 674 1217 C673.3 1218.4 672.6 1219.81 671.89 1221.21 C671.55 1221.9 671.21 1222.59 670.85 1223.29 C668.9 1227.2 666.95 1231.1 665 1235 C664.34 1235 663.68 1235 663 1235 C662.91 1235.83 662.83 1236.65 662.74 1237.5 C661.84 1241.74 660.18 1245.12 658.19 1248.94 C657.84 1249.61 657.5 1250.29 657.15 1250.99 C654.89 1255.4 652.47 1259.7 650 1264 C649.32 1265.3 648.65 1266.62 648 1267.94 C647.51 1268.93 647.51 1268.93 647.02 1269.93 C646.68 1270.62 646.35 1271.3 646 1272 C645.25 1273.5 644.5 1275 643.75 1276.5 C643.17 1277.65 642.6 1278.81 642 1280 C639.69 1280 637.38 1280 635 1280 C634.67 1277.69 634.34 1275.38 634 1273 C633.34 1273 632.68 1273 632 1273 C631.53 1271.87 631.05 1270.73 630.56 1269.56 C627.43 1262.47 623.66 1255.69 619.99 1248.87 C619.66 1248.25 619.34 1247.64 619 1247 C618.63 1246.34 618.26 1245.69 617.87 1245.01 C617 1243 617 1243 617 1239 C616.34 1239 615.68 1239 615 1239 C608.5 1226 608.5 1226 607.21 1223.42 C606.49 1221.98 605.77 1220.55 605.04 1219.11 C602.69 1214.49 600.46 1209.81 598.25 1205.12 C597.93 1204.46 597.61 1203.79 597.29 1203.1 C595 1198.23 595 1198.23 595 1196 C594.34 1196 593.68 1196 593 1196 C592.76 1195.44 592.52 1194.89 592.27 1194.31 C589.99 1189.13 587.57 1184.05 585 1179 C584.33 1177.67 583.67 1176.33 583 1175 C582.67 1174.34 582.34 1173.67 582 1172.99 C538 1085 538 1085 537.14 1083.26 C534.09 1077.1 530.86 1071.04 527.62 1064.98 C525.19 1060.39 523.02 1055.79 521 1051 C520.04 1049.01 519.04 1047.04 518.04 1045.07 C516.99 1042.97 515.95 1040.86 514.93 1038.75 C514.59 1038.06 514.25 1037.37 513.9 1036.66 C513.21 1035.24 512.51 1033.81 511.82 1032.38 C510.15 1028.53 510.15 1028.53 507 1026 C506.29 1024.21 506.29 1024.21 505.62 1021.94 C504.28 1017.33 502.2 1013.25 500 1009 C499.63 1008.27 499.25 1007.55 498.86 1006.8 C497.71 1004.57 496.54 1002.35 495.38 1000.12 C494.98 999.37 494.59 998.61 494.18 997.83 C493.61 996.74 493.61 996.74 493.02 995.63 C492.68 994.98 492.34 994.33 491.99 993.66 C490.99 991.82 490.99 991.82 489 990 C488.86 989.07 488.71 988.14 488.56 987.19 C487.95 983.7 486.86 981.99 485 979 C480.77 971.34 476.74 963.66 473.2 955.66 C470.96 950.69 468.46 945.86 466 941 C465.04 939.09 464.09 937.18 463.13 935.27 C462.46 933.92 461.78 932.57 461.11 931.22 C459.37 927.75 457.64 924.28 455.92 920.81 C450.15 907.56 450.15 907.56 442 896 C441.87 895.29 441.74 894.58 441.61 893.85 C440.8 890.04 439.08 886.81 437.31 883.38 C436.78 882.32 436.78 882.32 436.23 881.25 C431.54 870.98 431.54 870.98 425 862 C424.86 861.05 424.71 860.1 424.56 859.12 C423.95 855.73 423.05 854.67 421 852 C420.19 850.48 419.43 848.93 418.7 847.37 C418.28 846.48 417.86 845.59 417.43 844.67 C417 843.75 416.57 842.83 416.12 841.88 C411.38 831.75 406.44 821.75 401.19 811.88 C397.01 803.97 392.95 796 388.99 787.98 C387.95 785.91 386.91 783.84 385.87 781.77 C385.51 781.06 385.16 780.36 384.79 779.63 C384.13 778.31 383.46 776.99 382.79 775.67 C381.13 772.36 379.56 769.03 378.08 765.63 C375.93 760.73 373.46 756.03 370.94 751.31 C370.07 749.68 369.21 748.05 368.34 746.43 C367.93 745.67 367.53 744.91 367.11 744.12 C366.15 742.28 365.23 740.41 364.32 738.54 C363.12 735.92 363.12 735.92 361 734 C360.86 733.07 360.71 732.14 360.56 731.19 C359.95 727.7 358.86 726 357 723 C355.63 720.56 354.32 718.09 353 715.62 C352.66 714.99 352.31 714.36 351.96 713.7 C349.74 709.55 347.82 705.35 346 701 C345.33 699.55 344.64 698.12 343.94 696.69 C343.46 695.7 343.46 695.7 342.96 694.7 C342 692.82 342 692.82 340 691 C339.31 689.45 338.63 687.89 337.98 686.32 C334.64 678.41 330.89 670.66 327 663 C326 661 325 659 324 657 C323.49 655.98 322.98 654.96 322.45 653.91 C321.56 652.13 320.69 650.35 319.83 648.56 C318.05 644.72 318.05 644.72 315.42 641.46 C313.31 639.29 313.47 636.94 313 634 C312.03 632.32 311.02 630.65 310 629 C309.02 627.11 308.07 625.22 307.12 623.31 C306.6 622.26 306.08 621.21 305.55 620.13 C305.04 619.1 304.53 618.06 304 617 C303.13 615.25 302.25 613.5 301.38 611.75 C280 569 280 569 279.02 566.91 C278.03 564.84 278.03 564.84 276 563 C275.32 561 274.66 559 274 557 C273.2 555.42 273.2 555.42 272.38 553.81 C271 551 271 551 271 548 C270.34 548 269.68 548 269 548 C268.76 547.44 268.52 546.89 268.27 546.31 C265.99 541.13 263.57 536.05 261 531 C260.35 529.71 259.71 528.42 259.06 527.12 C258.73 526.47 258.41 525.81 258.07 525.13 C249.94 508.87 249.94 508.87 248.97 506.93 C248.31 505.61 247.64 504.29 246.97 502.97 C241 491.19 241 491.19 241 488 C240.34 488 239.68 488 239 488 C238.76 487.44 238.52 486.89 238.27 486.31 C236.54 482.37 234.78 478.45 232.94 474.56 C232.64 473.92 232.34 473.29 232.03 472.63 C230.95 470.67 230.95 470.67 228 469 C228.66 469 229.32 469 230 469 C229.61 468.22 229.22 467.43 228.81 466.62 C224.56 458.12 224.56 458.12 223.25 455.49 C222.51 454.03 221.78 452.56 221.04 451.11 C218.69 446.49 216.46 441.81 214.25 437.12 C213.93 436.46 213.61 435.79 213.29 435.1 C211 430.23 211 430.23 211 428 C210.34 428 209.68 428 209 428 C208.76 427.44 208.52 426.89 208.27 426.31 C205.99 421.13 203.57 416.05 201 411 C200.35 409.71 199.71 408.42 199.06 407.12 C198.73 406.47 198.41 405.81 198.07 405.13 C195.36 399.71 192.65 394.29 189.94 388.88 C189.62 388.24 189.3 387.61 188.97 386.95 C188.28 385.57 187.61 384.19 186.93 382.8 C186.58 382.08 186.23 381.36 185.88 380.62 C185.41 379.65 185.41 379.65 184.93 378.66 C183.99 376.81 183.99 376.81 182 375 C181.73 374.18 181.46 373.35 181.19 372.5 C179.58 367.76 177.29 363.45 175 359 C174.27 357.54 173.54 356.08 172.81 354.62 C172.51 354.02 172.21 353.41 171.89 352.79 C171.6 352.2 171.3 351.61 171 351 C170.63 350.35 170.27 349.7 169.89 349.02 C169 347 169 347 169 343 C168.01 342.67 167.02 342.34 166 342 C165.06 340.02 164.15 338.04 163.31 336.02 C161.64 332.17 159.76 328.43 157.88 324.69 C157.35 323.65 157.35 323.65 156.82 322.59 C156.32 321.59 156.32 321.59 155.8 320.57 C155.49 319.95 155.17 319.32 154.85 318.67 C154.18 317.35 153.48 316.06 152.76 314.77 C152 313 152 313 152 309 C151.34 309 150.68 309 150 309 C149.5 307.92 149.01 306.85 148.5 305.74 C144.71 297.59 140.82 289.59 136.45 281.73 C135 279 135 279 134.12 276.73 C132.03 271.63 129.2 266.86 126.54 262.04 C124.2 257.68 122.4 254.03 122 249 C121.34 249 120.68 249 120 249 C119.48 247.8 118.97 246.61 118.44 245.38 C115.52 238.8 112.24 232.41 109 226 C108.27 224.54 107.54 223.08 106.81 221.62 C106.51 221.02 106.21 220.41 105.89 219.79 C102.37 212.75 98.85 205.71 95.33 198.66 C95.03 198.07 94.73 197.47 94.43 196.85 C93.81 195.61 93.19 194.37 92.57 193.13 C91.35 190.7 90.14 188.27 88.91 185.85 C87.07 182.22 85.33 178.56 83.64 174.86 C83.34 174.23 83.05 173.59 82.75 172.94 C82.46 172.3 82.16 171.66 81.86 171 C79.31 165.51 76.48 160.19 73.49 154.92 C71.63 151.57 71 149.94 71 146 C70.34 146 69.68 146 69 146 C68.48 144.8 67.97 143.61 67.44 142.38 C66.1 139.34 64.69 136.35 63.18 133.39 C62.86 132.77 62.54 132.15 62.22 131.51 C61.58 130.26 60.93 129.02 60.29 127.79 C58.84 124.97 58 123.21 58 120 C57.34 120 56.68 120 56 120 C55.77 119.46 55.54 118.93 55.31 118.37 C52.39 111.65 48.99 105.25 45.45 98.84 C43.13 94.55 41.41 90.96 41 86 C40.34 86 39.68 86 39 86 C38.76 85.44 38.52 84.89 38.27 84.31 C36.35 79.94 34.36 75.62 32.2 71.37 C30.93 68.85 29.68 66.33 28.43 63.8 C25.2 57.29 25.2 57.29 21.69 50.94 C20.18 48.31 19.1 45.81 18 43 C16.69 40.32 15.35 37.66 14 35 C12.85 32.73 11.71 30.46 10.56 28.19 C10.26 27.59 9.96 26.99 9.65 26.37 C7.29 21.65 5.12 16.86 3.04 12.01 C2.17 9.84 2.17 9.84 0 9 C0 6.03 0 3.06 0 0 Z " fill="#FB0302" transform="translate(0,0)"/>
<path d="M0 0 C3 1 3 1 3 1 Z " fill="#FB0302" transform="translate(773,213)"/>
<path d="M0 0 C3 1 3 1 3 1 Z " fill="#FB0302" transform="translate(842,183)"/>
<path d="M0 0 C3 1 3 1 3 1 Z " fill="#FB0302" transform="translate(870,170)"/>
<path d="M0 0 C3 1 3 1 3 1 Z " fill="#FB0302" transform="translate(1217,21)"/>
<path d="M0 0 C2 1 2 1 2 1 Z " fill="#FB0302" transform="translate(607,1228)"/>
<path d="M0 0 C2 1 2 1 2 1 Z " fill="#FB0302" transform="translate(724,234)"/>
<path d="" fill="#FB0302" transform="translate(0,0)"/>
<path d="M0 0 C2 1 2 1 2 1 Z " fill="#FB0302" transform="translate(804,200)"/>
<path d="" fill="#FB0302" transform="translate(0,0)"/>
<path d="M0 0 C2 1 2 1 2 1 Z " fill="#FB0302" transform="translate(821,191)"/>
<path d="M0 0 C2 1 2 1 2 1 Z " fill="#FB0302" transform="translate(1031,102)"/>
<path d="M0 0 C2 1 2 1 2 1 Z " fill="#FB0302" transform="translate(1136,55)"/>
<path d="M0 0 C2 1 2 1 2 1 Z " fill="#FB0302" transform="translate(1160,44)"/>
<path d="M0 0 C2 1 2 1 2 1 Z " fill="#FB0302" transform="translate(1168,42)"/>
<path d="" fill="#FB0302" transform="translate(0,0)"/>
<path d="" fill="#FB0302" transform="translate(0,0)"/>
<path d="" fill="#FB0302" transform="translate(0,0)"/>
<path d="" fill="#FB0302" transform="translate(0,0)"/>
<path d="" fill="#FB0302" transform="translate(0,0)"/>
<path d="" fill="#FB0302" transform="translate(0,0)"/>
<path d="" fill="#FB0302" transform="translate(0,0)"/>
<path d="" fill="#FB0302" transform="translate(0,0)"/>
<path d="" fill="#FB0302" transform="translate(0,0)"/>
<path d="" fill="#FB0302" transform="translate(0,0)"/>
<path d="" fill="#FB0302" transform="translate(0,0)"/>
<path d="" fill="#FB0302" transform="translate(0,0)"/>
<path d="" fill="#FB0302" transform="translate(0,0)"/>
<path d="" fill="#FB0302" transform="translate(0,0)"/>
<path d="" fill="#FB0302" transform="translate(0,0)"/>
<path d="" fill="#FB0302" transform="translate(0,0)"/>
<path d="" fill="#FB0302" transform="translate(0,0)"/>
<path d="" fill="#FB0302" transform="translate(0,0)"/>
<path d="" fill="#FB0302" transform="translate(0,0)"/>
<path d="" fill="#FB0302" transform="translate(0,0)"/>
<path d="" fill="#FB0302" transform="translate(0,0)"/>
<path d="" fill="#FB0302" transform="translate(0,0)"/>
<path d="" fill="#FB0302" transform="translate(0,0)"/>
<path d="" fill="#FB0302" transform="translate(0,0)"/>
<path d="" fill="#FB0302" transform="translate(0,0)"/>
<path d="" fill="#FB0302" transform="translate(0,0)"/>
<path d="" fill="#FB0302" transform="translate(0,0)"/>
<path d="" fill="#FB0302" transform="translate(0,0)"/>
<path d="" fill="#FB0302" transform="translate(0,0)"/>
<path d="" fill="#FB0302" transform="translate(0,0)"/>
<path d="" fill="#FB0302" transform="translate(0,0)"/>
<path d="" fill="#FB0302" transform="translate(0,0)"/>
<path d="" fill="#FB0302" transform="translate(0,0)"/>
<path d="" fill="#FB0302" transform="translate(0,0)"/>
<path d="" fill="#FB0302" transform="translate(0,0)"/>
<path d="" fill="#FB0302" transform="translate(0,0)"/>
<path d="" fill="#FB0302" transform="translate(0,0)"/>
<path d="" fill="#FB0302" transform="translate(0,0)"/>
<path d="" fill="#FB0302" transform="translate(0,0)"/>
<path d="" fill="#FB0302" transform="translate(0,0)"/>
<path d="" fill="#FB0302" transform="translate(0,0)"/>
<path d="" fill="#FB0302" transform="translate(0,0)"/>
</svg>
